<mxfile host="app.diagrams.net" modified="2023-05-10T15:25:55.974Z" agent="Mozilla/5.0 (Windows NT 10.0; Win64; x64; rv:109.0) Gecko/20100101 Firefox/113.0" etag="XduxGLf5tvLwcpyAMXPV" version="21.2.9" type="device">
  <diagram id="C5RBs43oDa-KdzZeNtuy" name="Page-1">
    <mxGraphModel dx="1434" dy="739" grid="1" gridSize="10" guides="1" tooltips="1" connect="1" arrows="1" fold="1" page="1" pageScale="1" pageWidth="827" pageHeight="1169" math="0" shadow="0">
      <root>
        <mxCell id="WIyWlLk6GJQsqaUBKTNV-0" />
        <mxCell id="WIyWlLk6GJQsqaUBKTNV-1" parent="WIyWlLk6GJQsqaUBKTNV-0" />
        <mxCell id="I9m0G-TSdlajMX4sB2ht-121" value="&lt;div&gt;Клиент&lt;/div&gt;" style="shape=umlActor;verticalLabelPosition=bottom;verticalAlign=top;html=1;outlineConnect=0;" parent="WIyWlLk6GJQsqaUBKTNV-1" vertex="1">
          <mxGeometry x="80" y="40" width="30" height="60" as="geometry" />
        </mxCell>
        <mxCell id="I9m0G-TSdlajMX4sB2ht-122" style="edgeStyle=orthogonalEdgeStyle;rounded=0;orthogonalLoop=1;jettySize=auto;html=1;endArrow=none;endFill=0;dashed=1;" parent="WIyWlLk6GJQsqaUBKTNV-1" source="I9m0G-TSdlajMX4sB2ht-123" edge="1">
          <mxGeometry relative="1" as="geometry">
            <mxPoint x="270" y="160" as="targetPoint" />
          </mxGeometry>
        </mxCell>
        <mxCell id="I9m0G-TSdlajMX4sB2ht-123" value=":Среда разработки" style="rounded=1;whiteSpace=wrap;html=1;" parent="WIyWlLk6GJQsqaUBKTNV-1" vertex="1">
          <mxGeometry x="210" y="50" width="120" height="60" as="geometry" />
        </mxCell>
        <mxCell id="I9m0G-TSdlajMX4sB2ht-124" style="edgeStyle=orthogonalEdgeStyle;rounded=0;orthogonalLoop=1;jettySize=auto;html=1;" parent="WIyWlLk6GJQsqaUBKTNV-1" edge="1">
          <mxGeometry relative="1" as="geometry">
            <mxPoint x="95" y="160" as="targetPoint" />
            <mxPoint x="95" y="100" as="sourcePoint" />
          </mxGeometry>
        </mxCell>
        <mxCell id="I9m0G-TSdlajMX4sB2ht-125" value="" style="html=1;points=[];perimeter=orthogonalPerimeter;outlineConnect=0;targetShapes=umlLifeline;portConstraint=eastwest;newEdgeStyle={&quot;edgeStyle&quot;:&quot;elbowEdgeStyle&quot;,&quot;elbow&quot;:&quot;vertical&quot;,&quot;curved&quot;:0,&quot;rounded&quot;:0};" parent="WIyWlLk6GJQsqaUBKTNV-1" vertex="1">
          <mxGeometry x="85" y="160" width="20" height="760" as="geometry" />
        </mxCell>
        <mxCell id="I9m0G-TSdlajMX4sB2ht-126" value=":Приложение" style="rounded=1;whiteSpace=wrap;html=1;" parent="WIyWlLk6GJQsqaUBKTNV-1" vertex="1">
          <mxGeometry x="570" y="50" width="120" height="60" as="geometry" />
        </mxCell>
        <mxCell id="I9m0G-TSdlajMX4sB2ht-127" value=":Система контроля версий" style="rounded=1;whiteSpace=wrap;html=1;" parent="WIyWlLk6GJQsqaUBKTNV-1" vertex="1">
          <mxGeometry x="390" y="50" width="120" height="60" as="geometry" />
        </mxCell>
        <mxCell id="I9m0G-TSdlajMX4sB2ht-128" value="" style="html=1;points=[];perimeter=orthogonalPerimeter;outlineConnect=0;targetShapes=umlLifeline;portConstraint=eastwest;newEdgeStyle={&quot;edgeStyle&quot;:&quot;elbowEdgeStyle&quot;,&quot;elbow&quot;:&quot;vertical&quot;,&quot;curved&quot;:0,&quot;rounded&quot;:0};" parent="WIyWlLk6GJQsqaUBKTNV-1" vertex="1">
          <mxGeometry x="260" y="160" width="20" height="760" as="geometry" />
        </mxCell>
        <mxCell id="I9m0G-TSdlajMX4sB2ht-129" value="" style="endArrow=classic;html=1;rounded=0;" parent="WIyWlLk6GJQsqaUBKTNV-1" edge="1">
          <mxGeometry width="50" height="50" relative="1" as="geometry">
            <mxPoint x="105" y="160" as="sourcePoint" />
            <mxPoint x="260" y="160" as="targetPoint" />
            <Array as="points">
              <mxPoint x="205" y="160" />
            </Array>
          </mxGeometry>
        </mxCell>
        <mxCell id="I9m0G-TSdlajMX4sB2ht-130" value="открытиеПроекта()" style="text;html=1;align=center;verticalAlign=middle;resizable=0;points=[];autosize=1;strokeColor=none;fillColor=none;" parent="WIyWlLk6GJQsqaUBKTNV-1" vertex="1">
          <mxGeometry x="115" y="130" width="130" height="30" as="geometry" />
        </mxCell>
        <mxCell id="I9m0G-TSdlajMX4sB2ht-131" value="" style="endArrow=classic;html=1;rounded=0;" parent="WIyWlLk6GJQsqaUBKTNV-1" edge="1">
          <mxGeometry width="50" height="50" relative="1" as="geometry">
            <mxPoint x="105" y="210" as="sourcePoint" />
            <mxPoint x="260" y="210" as="targetPoint" />
            <Array as="points">
              <mxPoint x="205" y="210" />
            </Array>
          </mxGeometry>
        </mxCell>
        <mxCell id="I9m0G-TSdlajMX4sB2ht-132" value="gitPull()" style="text;html=1;align=center;verticalAlign=middle;resizable=0;points=[];autosize=1;strokeColor=none;fillColor=none;" parent="WIyWlLk6GJQsqaUBKTNV-1" vertex="1">
          <mxGeometry x="145" y="180" width="70" height="30" as="geometry" />
        </mxCell>
        <mxCell id="I9m0G-TSdlajMX4sB2ht-133" value="" style="endArrow=classic;html=1;rounded=0;" parent="WIyWlLk6GJQsqaUBKTNV-1" edge="1">
          <mxGeometry width="50" height="50" relative="1" as="geometry">
            <mxPoint x="280" y="209" as="sourcePoint" />
            <mxPoint x="435" y="209" as="targetPoint" />
            <Array as="points">
              <mxPoint x="380" y="209" />
            </Array>
          </mxGeometry>
        </mxCell>
        <mxCell id="I9m0G-TSdlajMX4sB2ht-134" style="edgeStyle=orthogonalEdgeStyle;rounded=0;orthogonalLoop=1;jettySize=auto;html=1;endArrow=none;endFill=0;dashed=1;" parent="WIyWlLk6GJQsqaUBKTNV-1" edge="1">
          <mxGeometry relative="1" as="geometry">
            <mxPoint x="445.5" y="220" as="targetPoint" />
            <mxPoint x="445.5" y="110" as="sourcePoint" />
          </mxGeometry>
        </mxCell>
        <mxCell id="I9m0G-TSdlajMX4sB2ht-135" value="" style="html=1;points=[];perimeter=orthogonalPerimeter;outlineConnect=0;targetShapes=umlLifeline;portConstraint=eastwest;newEdgeStyle={&quot;edgeStyle&quot;:&quot;elbowEdgeStyle&quot;,&quot;elbow&quot;:&quot;vertical&quot;,&quot;curved&quot;:0,&quot;rounded&quot;:0};" parent="WIyWlLk6GJQsqaUBKTNV-1" vertex="1">
          <mxGeometry x="436" y="208" width="20" height="52" as="geometry" />
        </mxCell>
        <mxCell id="I9m0G-TSdlajMX4sB2ht-136" value="&lt;div&gt;получениеПоследней&lt;/div&gt;&lt;div&gt;Версии()&lt;br&gt;&lt;/div&gt;" style="text;html=1;align=center;verticalAlign=middle;resizable=0;points=[];autosize=1;strokeColor=none;fillColor=none;" parent="WIyWlLk6GJQsqaUBKTNV-1" vertex="1">
          <mxGeometry x="280" y="175" width="150" height="40" as="geometry" />
        </mxCell>
        <mxCell id="I9m0G-TSdlajMX4sB2ht-137" value="" style="endArrow=classic;html=1;rounded=0;" parent="WIyWlLk6GJQsqaUBKTNV-1" edge="1">
          <mxGeometry width="50" height="50" relative="1" as="geometry">
            <mxPoint x="435" y="259.5" as="sourcePoint" />
            <mxPoint x="280" y="259.5" as="targetPoint" />
          </mxGeometry>
        </mxCell>
        <mxCell id="I9m0G-TSdlajMX4sB2ht-138" value="&lt;div&gt;отправкаИзРепозитория&lt;/div&gt;&lt;div&gt;НаКлиент()&lt;br&gt;&lt;/div&gt;" style="text;html=1;align=center;verticalAlign=middle;resizable=0;points=[];autosize=1;strokeColor=none;fillColor=none;" parent="WIyWlLk6GJQsqaUBKTNV-1" vertex="1">
          <mxGeometry x="276" y="215" width="160" height="40" as="geometry" />
        </mxCell>
        <mxCell id="I9m0G-TSdlajMX4sB2ht-139" value="" style="endArrow=classic;html=1;rounded=0;" parent="WIyWlLk6GJQsqaUBKTNV-1" edge="1">
          <mxGeometry width="50" height="50" relative="1" as="geometry">
            <mxPoint x="105" y="300" as="sourcePoint" />
            <mxPoint x="260" y="300" as="targetPoint" />
            <Array as="points">
              <mxPoint x="205" y="300" />
            </Array>
          </mxGeometry>
        </mxCell>
        <mxCell id="I9m0G-TSdlajMX4sB2ht-140" value="&lt;div&gt;внесениеИзменений&lt;/div&gt;&lt;div&gt;Вкод()&lt;br&gt;&lt;/div&gt;" style="text;html=1;align=center;verticalAlign=middle;resizable=0;points=[];autosize=1;strokeColor=none;fillColor=none;" parent="WIyWlLk6GJQsqaUBKTNV-1" vertex="1">
          <mxGeometry x="115" y="260" width="140" height="40" as="geometry" />
        </mxCell>
        <mxCell id="I9m0G-TSdlajMX4sB2ht-141" value="" style="endArrow=classic;html=1;rounded=0;" parent="WIyWlLk6GJQsqaUBKTNV-1" edge="1">
          <mxGeometry width="50" height="50" relative="1" as="geometry">
            <mxPoint x="105" y="359" as="sourcePoint" />
            <mxPoint x="260" y="359" as="targetPoint" />
            <Array as="points">
              <mxPoint x="205" y="359" />
            </Array>
          </mxGeometry>
        </mxCell>
        <mxCell id="I9m0G-TSdlajMX4sB2ht-142" value="запускОтладчика()" style="text;html=1;align=center;verticalAlign=middle;resizable=0;points=[];autosize=1;strokeColor=none;fillColor=none;" parent="WIyWlLk6GJQsqaUBKTNV-1" vertex="1">
          <mxGeometry x="115" y="320" width="130" height="30" as="geometry" />
        </mxCell>
        <mxCell id="I9m0G-TSdlajMX4sB2ht-145" style="edgeStyle=orthogonalEdgeStyle;rounded=0;orthogonalLoop=1;jettySize=auto;html=1;endArrow=none;endFill=0;dashed=1;" parent="WIyWlLk6GJQsqaUBKTNV-1" edge="1">
          <mxGeometry relative="1" as="geometry">
            <mxPoint x="630" y="440" as="targetPoint" />
            <mxPoint x="629.5" y="110" as="sourcePoint" />
            <Array as="points">
              <mxPoint x="630" y="190" />
              <mxPoint x="630" y="190" />
            </Array>
          </mxGeometry>
        </mxCell>
        <mxCell id="I9m0G-TSdlajMX4sB2ht-146" value="" style="html=1;points=[];perimeter=orthogonalPerimeter;outlineConnect=0;targetShapes=umlLifeline;portConstraint=eastwest;newEdgeStyle={&quot;edgeStyle&quot;:&quot;elbowEdgeStyle&quot;,&quot;elbow&quot;:&quot;vertical&quot;,&quot;curved&quot;:0,&quot;rounded&quot;:0};" parent="WIyWlLk6GJQsqaUBKTNV-1" vertex="1">
          <mxGeometry x="620" y="390" width="20" height="370" as="geometry" />
        </mxCell>
        <mxCell id="I9m0G-TSdlajMX4sB2ht-147" value="" style="endArrow=classic;html=1;rounded=0;" parent="WIyWlLk6GJQsqaUBKTNV-1" target="I9m0G-TSdlajMX4sB2ht-146" edge="1">
          <mxGeometry width="50" height="50" relative="1" as="geometry">
            <mxPoint x="281" y="450" as="sourcePoint" />
            <mxPoint x="436" y="450" as="targetPoint" />
            <Array as="points">
              <mxPoint x="381" y="450" />
            </Array>
          </mxGeometry>
        </mxCell>
        <mxCell id="I9m0G-TSdlajMX4sB2ht-148" value="открытьГлавноеМеню()" style="text;html=1;align=center;verticalAlign=middle;resizable=0;points=[];autosize=1;strokeColor=none;fillColor=none;" parent="WIyWlLk6GJQsqaUBKTNV-1" vertex="1">
          <mxGeometry x="390" y="420" width="160" height="30" as="geometry" />
        </mxCell>
        <mxCell id="I9m0G-TSdlajMX4sB2ht-149" value="" style="endArrow=classic;html=1;rounded=0;" parent="WIyWlLk6GJQsqaUBKTNV-1" target="I9m0G-TSdlajMX4sB2ht-146" edge="1">
          <mxGeometry width="50" height="50" relative="1" as="geometry">
            <mxPoint x="105" y="529.5" as="sourcePoint" />
            <mxPoint x="444" y="529.5" as="targetPoint" />
            <Array as="points">
              <mxPoint x="205" y="529.5" />
            </Array>
          </mxGeometry>
        </mxCell>
        <mxCell id="I9m0G-TSdlajMX4sB2ht-150" value="сделатьШаг()" style="text;html=1;align=center;verticalAlign=middle;resizable=0;points=[];autosize=1;strokeColor=none;fillColor=none;" parent="WIyWlLk6GJQsqaUBKTNV-1" vertex="1">
          <mxGeometry x="430" y="500" width="100" height="30" as="geometry" />
        </mxCell>
        <mxCell id="I9m0G-TSdlajMX4sB2ht-151" value="" style="endArrow=classic;html=1;rounded=0;" parent="WIyWlLk6GJQsqaUBKTNV-1" edge="1">
          <mxGeometry width="50" height="50" relative="1" as="geometry">
            <mxPoint x="620" y="601" as="sourcePoint" />
            <mxPoint x="105" y="601" as="targetPoint" />
          </mxGeometry>
        </mxCell>
        <mxCell id="I9m0G-TSdlajMX4sB2ht-152" value="переместитьсяПоКоду()" style="text;html=1;align=center;verticalAlign=middle;resizable=0;points=[];autosize=1;strokeColor=none;fillColor=none;" parent="WIyWlLk6GJQsqaUBKTNV-1" vertex="1">
          <mxGeometry x="400" y="570" width="160" height="30" as="geometry" />
        </mxCell>
        <mxCell id="I9m0G-TSdlajMX4sB2ht-153" value="loop" style="shape=umlFrame;whiteSpace=wrap;html=1;pointerEvents=0;" parent="WIyWlLk6GJQsqaUBKTNV-1" vertex="1">
          <mxGeometry x="25" y="490" width="660" height="220" as="geometry" />
        </mxCell>
        <mxCell id="I9m0G-TSdlajMX4sB2ht-154" value="" style="endArrow=classic;html=1;rounded=0;" parent="WIyWlLk6GJQsqaUBKTNV-1" edge="1">
          <mxGeometry width="50" height="50" relative="1" as="geometry">
            <mxPoint x="105" y="760" as="sourcePoint" />
            <mxPoint x="620" y="760.5" as="targetPoint" />
            <Array as="points">
              <mxPoint x="205" y="760" />
            </Array>
          </mxGeometry>
        </mxCell>
        <mxCell id="I9m0G-TSdlajMX4sB2ht-155" value="закрытьОтладчик()" style="text;html=1;align=center;verticalAlign=middle;resizable=0;points=[];autosize=1;strokeColor=none;fillColor=none;" parent="WIyWlLk6GJQsqaUBKTNV-1" vertex="1">
          <mxGeometry x="405" y="720" width="130" height="30" as="geometry" />
        </mxCell>
        <mxCell id="I9m0G-TSdlajMX4sB2ht-159" value="" style="endArrow=classic;html=1;rounded=0;" parent="WIyWlLk6GJQsqaUBKTNV-1" edge="1">
          <mxGeometry width="50" height="50" relative="1" as="geometry">
            <mxPoint x="105" y="849" as="sourcePoint" />
            <mxPoint x="260" y="849" as="targetPoint" />
            <Array as="points">
              <mxPoint x="205" y="849" />
            </Array>
          </mxGeometry>
        </mxCell>
        <mxCell id="I9m0G-TSdlajMX4sB2ht-160" value="сохранитьИзменения()" style="text;html=1;align=center;verticalAlign=middle;resizable=0;points=[];autosize=1;strokeColor=none;fillColor=none;" parent="WIyWlLk6GJQsqaUBKTNV-1" vertex="1">
          <mxGeometry x="100" y="810" width="160" height="30" as="geometry" />
        </mxCell>
        <mxCell id="I9m0G-TSdlajMX4sB2ht-161" value="" style="endArrow=classic;html=1;rounded=0;" parent="WIyWlLk6GJQsqaUBKTNV-1" edge="1">
          <mxGeometry width="50" height="50" relative="1" as="geometry">
            <mxPoint x="105" y="919" as="sourcePoint" />
            <mxPoint x="260" y="919" as="targetPoint" />
            <Array as="points">
              <mxPoint x="205" y="919" />
            </Array>
          </mxGeometry>
        </mxCell>
        <mxCell id="I9m0G-TSdlajMX4sB2ht-162" value="gitPush()" style="text;html=1;align=center;verticalAlign=middle;resizable=0;points=[];autosize=1;strokeColor=none;fillColor=none;" parent="WIyWlLk6GJQsqaUBKTNV-1" vertex="1">
          <mxGeometry x="150" y="890" width="70" height="30" as="geometry" />
        </mxCell>
        <mxCell id="I9m0G-TSdlajMX4sB2ht-163" style="edgeStyle=orthogonalEdgeStyle;rounded=0;orthogonalLoop=1;jettySize=auto;html=1;endArrow=none;endFill=0;dashed=1;" parent="WIyWlLk6GJQsqaUBKTNV-1" edge="1">
          <mxGeometry relative="1" as="geometry">
            <mxPoint x="450" y="920" as="targetPoint" />
            <mxPoint x="440.5" y="260" as="sourcePoint" />
            <Array as="points">
              <mxPoint x="445.5" y="260" />
              <mxPoint x="445.5" y="920" />
            </Array>
          </mxGeometry>
        </mxCell>
        <mxCell id="I9m0G-TSdlajMX4sB2ht-164" value="" style="html=1;points=[];perimeter=orthogonalPerimeter;outlineConnect=0;targetShapes=umlLifeline;portConstraint=eastwest;newEdgeStyle={&quot;edgeStyle&quot;:&quot;elbowEdgeStyle&quot;,&quot;elbow&quot;:&quot;vertical&quot;,&quot;curved&quot;:0,&quot;rounded&quot;:0};" parent="WIyWlLk6GJQsqaUBKTNV-1" vertex="1">
          <mxGeometry x="436" y="920" width="20" height="52" as="geometry" />
        </mxCell>
        <mxCell id="I9m0G-TSdlajMX4sB2ht-165" value="" style="endArrow=classic;html=1;rounded=0;" parent="WIyWlLk6GJQsqaUBKTNV-1" edge="1">
          <mxGeometry width="50" height="50" relative="1" as="geometry">
            <mxPoint x="280" y="920" as="sourcePoint" />
            <mxPoint x="435" y="920" as="targetPoint" />
            <Array as="points">
              <mxPoint x="380" y="920" />
            </Array>
          </mxGeometry>
        </mxCell>
        <mxCell id="I9m0G-TSdlajMX4sB2ht-166" value="&lt;div&gt;сохранениеИзменений&lt;/div&gt;&lt;div&gt;Врепозиторий()&lt;br&gt;&lt;/div&gt;" style="text;html=1;align=center;verticalAlign=middle;resizable=0;points=[];autosize=1;strokeColor=none;fillColor=none;" parent="WIyWlLk6GJQsqaUBKTNV-1" vertex="1">
          <mxGeometry x="275" y="885" width="160" height="40" as="geometry" />
        </mxCell>
        <mxCell id="I9m0G-TSdlajMX4sB2ht-167" style="edgeStyle=orthogonalEdgeStyle;rounded=0;orthogonalLoop=1;jettySize=auto;html=1;endArrow=none;endFill=0;dashed=1;" parent="WIyWlLk6GJQsqaUBKTNV-1" edge="1">
          <mxGeometry relative="1" as="geometry">
            <mxPoint x="94" y="1020" as="targetPoint" />
            <mxPoint x="94" y="920" as="sourcePoint" />
          </mxGeometry>
        </mxCell>
        <mxCell id="I9m0G-TSdlajMX4sB2ht-168" style="edgeStyle=orthogonalEdgeStyle;rounded=0;orthogonalLoop=1;jettySize=auto;html=1;endArrow=none;endFill=0;dashed=1;" parent="WIyWlLk6GJQsqaUBKTNV-1" edge="1">
          <mxGeometry relative="1" as="geometry">
            <mxPoint x="270" y="1020" as="targetPoint" />
            <mxPoint x="269.5" y="920" as="sourcePoint" />
            <Array as="points">
              <mxPoint x="270" y="950" />
              <mxPoint x="270" y="950" />
            </Array>
          </mxGeometry>
        </mxCell>
        <mxCell id="I9m0G-TSdlajMX4sB2ht-169" style="edgeStyle=orthogonalEdgeStyle;rounded=0;orthogonalLoop=1;jettySize=auto;html=1;endArrow=none;endFill=0;dashed=1;" parent="WIyWlLk6GJQsqaUBKTNV-1" edge="1">
          <mxGeometry relative="1" as="geometry">
            <mxPoint x="445.5" y="1022" as="targetPoint" />
            <mxPoint x="445.5" y="972" as="sourcePoint" />
          </mxGeometry>
        </mxCell>
        <mxCell id="I9m0G-TSdlajMX4sB2ht-171" value="" style="endArrow=classic;html=1;rounded=0;edgeStyle=orthogonalEdgeStyle;" parent="WIyWlLk6GJQsqaUBKTNV-1" edge="1">
          <mxGeometry width="50" height="50" relative="1" as="geometry">
            <mxPoint x="110" y="665" as="sourcePoint" />
            <mxPoint x="258" y="665" as="targetPoint" />
          </mxGeometry>
        </mxCell>
        <mxCell id="I9m0G-TSdlajMX4sB2ht-172" value="сделатьИзменение()" style="text;html=1;align=center;verticalAlign=middle;resizable=0;points=[];autosize=1;strokeColor=none;fillColor=none;" parent="WIyWlLk6GJQsqaUBKTNV-1" vertex="1">
          <mxGeometry x="115" y="635" width="140" height="30" as="geometry" />
        </mxCell>
        <mxCell id="0gn1JpPk7W01uy9IkWN2-0" value="&lt;div&gt;[до тех пор, пока&lt;/div&gt;&lt;div&gt;изменения не будут&lt;/div&gt;&lt;div&gt;правильными]&lt;/div&gt;" style="text;html=1;align=center;verticalAlign=middle;resizable=0;points=[];autosize=1;strokeColor=none;fillColor=none;" vertex="1" parent="WIyWlLk6GJQsqaUBKTNV-1">
          <mxGeometry x="20" y="530" width="140" height="60" as="geometry" />
        </mxCell>
      </root>
    </mxGraphModel>
  </diagram>
</mxfile>
